<?xml version="1.0" encoding="iso-8859-1"?>
<!-- Generator: Adobe Illustrator 19.0.0, SVG Export Plug-In . SVG Version: 6.00 Build 0)  -->
<svg version="1.1" id="Layer_1" xmlns="http://www.w3.org/2000/svg" xmlns:xlink="http://www.w3.org/1999/xlink" x="0px" y="0px"
	 viewBox="0 0 480 480" style="enable-background:new 0 0 480 480;" xml:space="preserve">
<g id="XMLID_24_">
	<g>
		<g>
			<path d="M186.09,159.989c4.96,2.365,10.899,0.283,13.299-4.654c0.314-0.396,1.842-1.392,4.366-1.392s4.053,0.997,4.366,1.393
				c1.727,3.554,5.288,5.629,9,5.629c1.443,0,2.909-0.314,4.298-0.976c4.985-2.378,7.099-8.347,4.721-13.331
				c-3.684-7.724-12.471-12.715-22.386-12.715c-9.915,0-18.702,4.991-22.386,12.715C178.99,151.643,181.104,157.611,186.09,159.989z
				"/>
			<path d="M248.918,159.989c1.389,0.662,2.854,0.977,4.297,0.976c3.712,0,7.274-2.075,9.001-5.63
				c0.314-0.396,1.842-1.392,4.365-1.392c2.524,0,4.052,0.996,4.366,1.392c2.399,4.937,8.337,7.02,13.299,4.654
				c4.986-2.378,7.099-8.347,4.721-13.331c-3.684-7.724-12.471-12.715-22.386-12.715c-9.916,0-18.703,4.991-22.386,12.716
				C241.818,151.645,243.932,157.612,248.918,159.989z"/>
			<path d="M250.001,370v-2c0-5.522-4.477-10-10-10c-5.523,0-10,4.478-10,10v2c0,5.522,4.477,10,10,10
				C245.524,380,250.001,375.522,250.001,370z"/>
			<path d="M358.623,318.204C349.129,306.635,335.122,300,320.191,300H299.93c-0.152-0.004-0.304-0.004-0.456,0H180.526
				c-0.152-0.004-0.303-0.004-0.456,0h-20.261c-14.93,0-28.939,6.635-38.433,18.204c-9.553,11.642-13.344,26.801-10.401,41.592
				c0.043,0.22,0.094,0.438,0.153,0.655l30.278,112.155c1.178,4.363,5.136,7.394,9.655,7.394h177.878
				c4.52,0,8.477-3.032,9.655-7.394l30.278-112.155c0.058-0.217,0.11-0.434,0.153-0.655
				C371.968,345.005,368.177,329.845,358.623,318.204z M284.726,320l-41.457,100h-6.539l-41.457-100H284.726z M349.468,355.586
				L321.28,460H158.72l-28.189-104.414c-1.658-8.798,0.633-17.781,6.306-24.694C142.518,323.97,150.89,320,159.809,320h13.813
				l47.19,113.829c1.549,3.735,5.194,6.171,9.238,6.171h19.899c4.044,0,7.689-2.436,9.238-6.171L273.212,400h26.486
				c5.523,0,10-4.478,10-10c0-5.522-4.477-10-10-10h-18.194l24.874-60h13.813c8.919,0,17.292,3.97,22.972,10.891
				C348.836,337.805,351.126,346.789,349.468,355.586z"/>
			<path d="M240,348c5.523,0,10-4.478,10-10v-2c0-5.522-4.477-10-10-10s-10,4.478-10,10v2C230,343.522,234.477,348,240,348z"/>
			<path d="M145.609,189.889c3.193,48.132,43.311,85.835,91.334,85.835s88.141-37.703,91.333-85.835l3.072-46.316
				c0.345-2.639,0.519-5.27,0.519-7.825c0-0.055-0.001-0.108-0.001-0.162c0.004-0.225,0-0.448-0.012-0.671
				c-0.447-32.667-27.149-59.167-59.736-59.167h-2.27c-20.272,0-38.764,10.261-48.122,26.125
				c-19.234-0.978-43.485-4.407-61.627-7.938c3.653-40.376,36.947-72.869,77.349-73.902C238.296,20.011,239.147,20,240,20
				c29.047,0,71.507,11.939,91.487,29.581l-9.691,20.974c-2.317,5.013-0.131,10.956,4.883,13.272
				c5.014,2.312,10.956,0.13,13.272-4.884l12.603-27.275c1.649-3.568,1.054-7.772-1.52-10.743C329.128,15.646,276.343,0,240,0
				c-1.028,0-2.052,0.013-3.069,0.039c-26.21,0.671-50.717,11.608-69.005,30.797c-18.159,19.053-28.16,44.084-28.16,70.48
				c0,0.221,0.065,1.522,0.097,1.821L145.609,189.889z M225.793,122.057c0.37,0.012,0.74,0.003,1.11-0.027l1.797-0.146
				c3.778-0.306,7.058-2.722,8.472-6.239c4.781-11.9,17.912-19.895,32.675-19.895h2.27c21.778,0,39.605,17.83,39.74,39.747
				c0.001,0.083,0.003,0.166,0.005,0.249c0.001,0.045,0.002,0.089,0.003,0.134c-0.006,1.731-0.135,3.531-0.383,5.354
				c-0.031,0.229-0.054,0.458-0.069,0.687l-3.094,46.646c-2.497,37.659-33.85,67.159-71.376,67.159
				c-37.525,0-68.878-29.5-71.376-67.158l-4.913-74.176C180.693,118.078,206.361,121.466,225.793,122.057z"/>
		</g>
	</g>
</g>
<g>
</g>
<g>
</g>
<g>
</g>
<g>
</g>
<g>
</g>
<g>
</g>
<g>
</g>
<g>
</g>
<g>
</g>
<g>
</g>
<g>
</g>
<g>
</g>
<g>
</g>
<g>
</g>
<g>
</g>
</svg>
