<?xml version="1.0" encoding="iso-8859-1"?>
<!-- Generator: Adobe Illustrator 19.0.0, SVG Export Plug-In . SVG Version: 6.00 Build 0)  -->
<svg version="1.1" id="Layer_1" xmlns="http://www.w3.org/2000/svg" xmlns:xlink="http://www.w3.org/1999/xlink" x="0px" y="0px"
	 viewBox="0 0 480 480" style="enable-background:new 0 0 480 480;" xml:space="preserve">
<g id="XMLID_1886_">
	<g>
		<path d="M387.381,112.5c-12.589,0-24.799,2.475-36.29,7.355c-4.451,1.89-8.789,4.151-12.894,6.718
			c-4.682,2.929-6.104,9.099-3.175,13.781c2.928,4.683,9.098,6.103,13.781,3.175c3.218-2.013,6.617-3.784,10.105-5.266
			c9.005-3.825,18.585-5.764,28.473-5.764c40.042,0,72.618,32.411,72.618,72.25c0,19.417-8.597,37.686-23.586,50.121L331.05,342.281
			c-4.057,3.365-9.201,5.218-14.485,5.218c-5.285,0-10.429-1.853-14.485-5.218l-46.419-38.51l40.39-33.508
			c19.584-16.248,30.816-40.126,30.816-65.514c0-50.867-41.548-92.25-92.618-92.25c-27.794,0-53.36,12.022-70.816,32.754
			c-17.456-20.732-43.022-32.754-70.816-32.754C41.548,112.5,0,153.883,0,204.75c0,25.387,11.232,49.266,30.817,65.514
			l105.363,87.411c7.638,6.336,17.317,9.826,27.254,9.826c9.938,0,19.617-3.489,27.254-9.826L240,316.765l49.311,40.909
			c7.638,6.336,17.317,9.826,27.255,9.826c9.938,0,19.617-3.489,27.254-9.826l105.363-87.411
			C468.768,254.016,480,230.137,480,204.75C480,153.883,438.452,112.5,387.381,112.5z M196.718,254.871
			c-14.989-12.436-23.586-30.704-23.586-50.121c0-5.523-4.477-10-10-10s-10,4.477-10,10c0,25.387,11.232,49.266,30.816,65.514
			l40.39,33.508l-46.419,38.51c-4.056,3.365-9.2,5.218-14.484,5.218s-10.428-1.853-14.485-5.218L43.586,254.871
			C28.597,242.436,20,224.167,20,204.75c0-39.839,32.577-72.25,72.619-72.25c25.705,0,48.98,13.103,62.26,35.051
			c1.812,2.994,5.056,4.823,8.556,4.823s6.744-1.829,8.556-4.823c13.28-21.948,36.555-35.051,62.26-35.051
			c40.042,0,72.618,32.411,72.618,72.25c0,19.417-8.597,37.686-23.586,50.121L240,290.778L196.718,254.871z"/>
	</g>
</g>
<g>
</g>
<g>
</g>
<g>
</g>
<g>
</g>
<g>
</g>
<g>
</g>
<g>
</g>
<g>
</g>
<g>
</g>
<g>
</g>
<g>
</g>
<g>
</g>
<g>
</g>
<g>
</g>
<g>
</g>
</svg>
